<svg width="38" height="38" viewBox="0 0 38 38" fill="none" xmlns="http://www.w3.org/2000/svg">
<g filter="url(#filter0_d_341_644)">
<path d="M34 15.0913C34 6.75456 27.2863 0 19 0C10.7137 0 4 6.75456 4 15.0913C4 22.6369 9.44355 28.9047 16.6411 30V19.4726H12.8306V15.0913H16.6411V11.8053C16.6411 8.03245 18.879 5.90264 22.2661 5.90264C23.9597 5.90264 25.6532 6.2069 25.6532 6.2069V9.91886H23.7782C21.9032 9.91886 21.2984 11.0751 21.2984 12.2921V15.0913H25.4718L24.8065 19.4726H21.2984V30C28.496 28.9047 34 22.6369 34 15.0913Z" fill="white"/>
</g>
<defs>
<filter id="filter0_d_341_644" x="0" y="0" width="38" height="38" filterUnits="userSpaceOnUse" color-interpolation-filters="sRGB">
<feFlood flood-opacity="0" result="BackgroundImageFix"/>
<feColorMatrix in="SourceAlpha" type="matrix" values="0 0 0 0 0 0 0 0 0 0 0 0 0 0 0 0 0 0 127 0" result="hardAlpha"/>
<feOffset dy="4"/>
<feGaussianBlur stdDeviation="2"/>
<feComposite in2="hardAlpha" operator="out"/>
<feColorMatrix type="matrix" values="0 0 0 0 0 0 0 0 0 0 0 0 0 0 0 0 0 0 0.25 0"/>
<feBlend mode="normal" in2="BackgroundImageFix" result="effect1_dropShadow_341_644"/>
<feBlend mode="normal" in="SourceGraphic" in2="effect1_dropShadow_341_644" result="shape"/>
</filter>
</defs>
</svg>
